<svg width="12" height="13" viewBox="0 0 12 13" fill="none" xmlns="http://www.w3.org/2000/svg">
<path id="Filter" d="M1 2.43322V1.45C1 1.33954 1.08954 1.25 1.2 1.25H11.3C11.4105 1.25 11.5 1.33954 11.5 1.45V2.43322C11.5 2.95227 11.2759 3.44606 10.8853 3.78785L7.5683 6.69024C7.5249 6.72822 7.5 6.78308 7.5 6.84075V9.65388C7.5 9.71463 7.47238 9.77209 7.42494 9.81005L5.32494 11.49C5.19399 11.5948 5 11.5016 5 11.3339V6.84075C5 6.78308 4.9751 6.72822 4.9317 6.69024L1.61469 3.78786C1.22406 3.44606 1 2.95227 1 2.43322Z" stroke="#475569"/>
</svg>
