<svg width="19" height="19" viewBox="0 0 19 19" fill="none" xmlns="http://www.w3.org/2000/svg">
<path d="M7.35714 0.5C9.17577 0.5 10.9199 1.22856 12.2059 2.52542C13.4918 3.82227 14.2143 5.58118 14.2143 7.41521C14.2143 9.12805 13.5919 10.7026 12.5686 11.9154L17.7133 16.5754C18.129 16.9519 18.1159 17.6089 17.6855 17.9685C17.3237 18.2709 16.7921 18.252 16.4526 17.9248L11.2921 12.952C10.0894 13.9839 9.0556 14.3304 7.35714 14.3304C5.53852 14.3304 3.79437 13.6019 2.50841 12.305C1.22245 11.0081 0.5 9.24924 0.5 7.41521C0.5 5.58118 1.22245 3.82227 2.50841 2.52542C3.79437 1.22856 5.53852 0.5 7.35714 0.5ZM7.35714 2.62776C4.71978 2.62776 2.60989 4.75551 2.60989 7.41521C2.60989 10.0749 4.71978 12.2027 7.35714 12.2027C9.99451 12.2027 12.1044 10.0749 12.1044 7.41521C12.1044 4.75551 9.99451 2.62776 7.35714 2.62776Z" fill="white"/>
</svg>
